:SAMPLES-PER-SECOND 30
:FULLY-SPECIFIED
:DEGREES
1488
root  3.73859 40.6785 -1.91351 -98.2835 -87.2488 95.414
RightUpLeg  -0.00365084 -10.8066 -6.777
RightLeg  12.2165 -2.89623 1.91982
RightFoot  -9.00434 -0.0706334 0.0214515
RightToes  0.000482159 0.542163 -0.142577
Spine  9.48845 0.36887 1.3489
Spine1  -2.13028 0.963189 -2.29821
HEad  -1.86801 0.894242 0.619154
LeftShoulder1  0.283947 -0.14819 0.784
LeftArm  -22.1281 17.8829 -9.36993
LeftForeArm  13.6466 -8.10846 -0.0432678
LeftHand  -0.25398 0.0180481 5.50724
RightShoulder  0.301257 -0.936078 3.77604
RightArm  -26.0301 -6.46232 0.529329
RightForeArm  -16.0236 9.0849 3.34522
RightHand  -4.57911 13.0085 -28.7616
LeftUpLeg  -2.362 5.62944 -1.38917
LeftLeg  8.21873 10.7161 -1.61406
LeftFoot  -3.88526 -0.0423791 1.01096
LeftToes  1.06246e-005 4.65854e-005 -8.18503e-006
1489
root  3.67715 40.7236 -1.96521 -84.8499 -86.9782 81.8524
RightUpLeg  0.461201 -10.7954 -7.02592
RightLeg  11.9556 -3.49047 1.82157
RightFoot  -8.89558 -0.0710567 0.0286374
RightToes  0.000482159 0.542163 -0.142577
Spine  9.12615 -0.0239207 -0.0485669
Spine1  -1.80252 0.316966 -1.29805
HEad  -2.42658 1.33567 0.531695
LeftShoulder1  0.272242 -0.481294 1.87028
LeftArm  -19.8315 16.9534 -9.66872
LeftForeArm  11.8926 -3.94626 -0.35999
LeftHand  -0.25398 0.0180481 5.50724
RightShoulder  0.277485 -1.07184 3.40268
RightArm  -26.0525 -5.06733 0.323011
RightForeArm  -15.8416 8.604 3.35519
RightHand  -4.69577 13.1421 -29.2502
LeftUpLeg  -1.44477 4.80748 -1.2906
LeftLeg  6.72873 10.8558 -2.5343
LeftFoot  -3.01748 -0.0433458 0.83881
LeftToes  1.06246e-005 4.65854e-005 -8.18503e-006
1490
root  3.62034 40.7658 -1.98455 -77.8694 -86.7887 74.7308
RightUpLeg  1.04198 -10.6549 -7.17432
RightLeg  11.3708 -4.03329 1.8478
RightFoot  -8.65685 -0.0668882 -0.0300029
RightToes  0.000482159 0.542163 -0.142577
Spine  8.94873 -0.379678 -0.992929
Spine1  -1.45777 -0.226426 -0.583998
HEad  -3.43198 2.03 0.182313
LeftShoulder1  0.289958 -0.713795 1.81197
LeftArm  -18.7942 16.9299 -9.85897
LeftForeArm  8.2645 -2.27347 -0.647325
LeftHand  -0.25398 0.0180481 5.50724
RightShoulder  0.301693 -0.821827 3.21554
RightArm  -25.6335 -4.22929 0.318569
RightForeArm  -15.2102 7.83961 3.34386
RightHand  -4.45521 12.4387 -28.8635
LeftUpLeg  -0.482306 3.75582 -1.26542
LeftLeg  5.11976 11.5609 -3.21847
LeftFoot  -2.38367 -0.0927665 1.36787
LeftToes  1.06246e-005 4.65854e-005 -8.18503e-006
1491
root  3.5509 40.8077 -1.97159 -78.5959 -86.8007 75.3841
RightUpLeg  1.55826 -10.3847 -7.21483
RightLeg  10.6461 -4.28695 1.93537
RightFoot  -8.2707 -0.0639658 -0.0651612
RightToes  0.000482159 0.542163 -0.142577
Spine  8.7821 -0.502471 -1.24215
Spine1  -1.08531 -0.392045 -0.499701
HEad  -4.53685 2.43835 -0.0895096
LeftShoulder1  0.316795 -0.689394 1.04122
LeftArm  -19.2102 17.0861 -10.0204
LeftForeArm  6.157 -2.59856 -0.608143
LeftHand  -0.25398 0.0180481 5.50724
RightShoulder  0.331631 -0.580086 3.32243
RightArm  -24.7703 -3.91412 0.353418
RightForeArm  -13.9721 6.91029 3.34212
RightHand  -4.09828 11.5738 -27.9571
LeftUpLeg  0.361217 3.25999 -1.15434
LeftLeg  3.74026 12.1069 -3.76509
LeftFoot  -1.86359 -0.126214 1.65986
LeftToes  1.06246e-005 4.65854e-005 -8.18503e-006
1492
root  3.45616 40.8429 -1.95086 -83.5514 -86.8537 80.4445
RightUpLeg  1.82753 -10.1235 -7.24831
RightLeg  10.0457 -4.28409 2.04496
RightFoot  -7.93014 -0.0590849 -0.127932
RightToes  0.000482159 0.542163 -0.142577
Spine  8.3635 -0.419304 -1.05757
Spine1  -0.666018 -0.216507 -0.964132
HEad  -5.42112 2.27331 0.0412217
LeftShoulder1  0.345649 -0.665902 0.215975
LeftArm  -19.9974 17.0317 -10.091
LeftForeArm  8.12623 -3.34248 -0.349277
LeftHand  -0.25398 0.0180481 5.50724
RightShoulder  0.346267 -0.576912 3.87927
RightArm  -23.7418 -3.92703 0.477443
RightForeArm  -12.255 5.89477 3.31961
RightHand  -3.73141 10.7137 -26.8682
LeftUpLeg  0.931272 3.26408 -1.04531
LeftLeg  2.71534 12.2939 -4.19043
LeftFoot  -1.46216 -0.123183 1.53101
LeftToes  1.06246e-005 4.65854e-005 -8.18503e-006
1493
root  3.33909 40.8692 -1.94585 -88.9521 -86.8671 86.1038
RightUpLeg  1.91731 -9.91177 -7.26873
RightLeg  9.5437 -4.23989 2.19025
RightFoot  -7.68683 -0.0467311 -0.305291
RightToes  0.000482159 0.542163 -0.142577
Spine  7.64138 -0.243882 -0.932499
Spine1  -0.21546 0.0574889 -1.39027
HEad  -5.98852 1.89633 0.38637
LeftShoulder1  0.376329 -0.738478 -0.442994
LeftArm  -20.2043 16.8406 -10.0356
LeftForeArm  12.0516 -3.62826 -0.179485
LeftHand  -0.25398 0.0180481 5.50724
RightShoulder  0.354198 -0.666923 4.61277
RightArm  -22.8364 -4.07949 0.821776
RightForeArm  -10.3128 4.77137 3.22784
RightHand  -3.30344 9.61239 -25.588
LeftUpLeg  1.2608 3.24102 -1.07375
LeftLeg  1.88976 12.5459 -4.35396
LeftFoot  -1.22787 -0.124252 1.51141
LeftToes  1.06246e-005 4.65854e-005 -8.18503e-006
1494
root  3.21434 40.8903 -1.96169 -93.4927 -86.9227 90.9054
RightUpLeg  2.03568 -9.68971 -7.19167
RightLeg  9.01303 -4.28056 2.35482
RightFoot  -7.44536 -0.0333767 -0.498085
RightToes  0.000482159 0.542163 -0.142577
Spine  6.87517 -0.0504352 -1.1687
Spine1  0.152281 0.228581 -1.23289
HEad  -6.21622 1.80388 0.528487
LeftShoulder1  0.400566 -0.774833 -0.998241
LeftArm  -19.7078 16.6981 -9.97902
LeftForeArm  14.7109 -3.50581 -0.268881
LeftHand  -0.25398 0.0180481 5.50724
RightShoulder  0.372343 -0.62668 5.12679
RightArm  -22.1831 -4.30462 1.32207
RightForeArm  -8.68655 3.58332 3.08171
RightHand  -2.87964 8.4332 -24.2665
LeftUpLeg  1.43774 3.08397 -1.12372
LeftLeg  1.32952 12.9501 -4.25824
LeftFoot  -1.11572 -0.133567 1.64112
LeftToes  1.06246e-005 4.65854e-005 -8.18503e-006
1495
root  3.09534 40.9073 -1.98513 -97.1837 -87.0423 94.7334
RightUpLeg  2.28927 -9.46766 -7.04341
RightLeg  8.49539 -4.3572 2.5001
RightFoot  -7.19843 -0.0278333 -0.570776
RightToes  0.000482159 0.542163 -0.142577
Spine  6.35627 0.100897 -1.66155
Spine1  0.326378 0.251058 -0.587615
HEad  -6.10109 1.99563 0.382069
LeftShoulder1  0.410347 -0.740594 -1.34119
LeftArm  -19.036 16.7249 -10.0535
LeftForeArm  15.521 -3.17453 -0.455632
LeftHand  -0.25398 0.0180481 5.50724
RightShoulder  0.405077 -0.439144 5.43945
RightArm  -21.8607 -4.62086 1.70716
RightForeArm  -7.9286 2.60213 2.92769
RightHand  -2.60561 7.60685 -23.3859
LeftUpLeg  1.55158 3.04285 -1.02734
LeftLeg  1.16894 13.1593 -4.117
LeftFoot  -1.07141 -0.129523 1.58025
LeftToes  1.06246e-005 4.65854e-005 -8.18503e-006
1496
root  2.98809 40.9173 -2.00092 -99.622 -87.1632 97.1503
RightUpLeg  2.65245 -9.33792 -6.94249
RightLeg  8.11821 -4.38132 2.62187
RightFoot  -7.02747 -0.0272312 -0.569256
RightToes  0.000482159 0.542163 -0.142577
Spine  6.12386 0.159083 -2.10747
Spine1  0.413917 0.1854 0.0180775
HEad  -5.85538 2.13051 0.151846
LeftShoulder1  0.402643 -0.673723 -1.30544
LeftArm  -18.8768 16.9074 -10.2751
LeftForeArm  15.355 -2.7252 -0.437784
LeftHand  -0.25398 0.0180481 5.50724
RightShoulder  0.43643 -0.283489 5.81895
RightArm  -21.9152 -4.9639 1.80357
RightForeArm  -7.8432 2.13447 2.78039
RightHand  -2.48521 7.17272 -23.0794
LeftUpLeg  1.72983 3.12978 -0.850677
LeftLeg  1.22589 13.1184 -4.05902
LeftFoot  -1.10542 -0.116703 1.39604
LeftToes  1.06246e-005 4.65854e-005 -8.18503e-006
